# Wavefront OBJ file automatically generated by Tiled2Unity

# Vertices (Count = 238)
v -1264 -192 0
v -1280 -192 0
v -1280 -176 0
v -1264 -176 0
v -1248 -192 0
v -1248 -176 0
v -1232 -192 0
v -1232 -176 0
v -1216 -192 0
v -1216 -176 0
v -1200 -192 0
v -1200 -176 0
v -1184 -192 0
v -1184 -176 0
v -1168 -192 0
v -1168 -176 0
v -1152 -192 0
v -1152 -176 0
v -1136 -192 0
v -1136 -176 0
v -1120 -192 0
v -1120 -176 0
v -1104 -192 0
v -1104 -176 0
v -1088 -192 0
v -1088 -176 0
v -1072 -192 0
v -1072 -176 0
v -1056 -192 0
v -1056 -176 0
v -1040 -192 0
v -1040 -176 0
v -1024 -192 0
v -1024 -176 0
v -1008 -192 0
v -1008 -176 0
v -992 -192 0
v -992 -176 0
v -976 -192 0
v -976 -176 0
v -960 -192 0
v -960 -176 0
v -944 -192 0
v -944 -176 0
v -928 -192 0
v -928 -176 0
v -912 -192 0
v -912 -176 0
v -896 -192 0
v -896 -176 0
v -880 -192 0
v -880 -176 0
v -864 -192 0
v -864 -176 0
v -848 -192 0
v -848 -176 0
v -832 -192 0
v -832 -176 0
v -816 -192 0
v -816 -176 0
v -800 -192 0
v -800 -176 0
v -784 -192 0
v -784 -176 0
v -768 -192 0
v -768 -176 0
v -752 -192 0
v -752 -176 0
v -736 -192 0
v -736 -176 0
v -720 -192 0
v -720 -176 0
v -704 -192 0
v -704 -176 0
v -688 -192 0
v -688 -176 0
v -672 -192 0
v -672 -176 0
v -656 -192 0
v -656 -176 0
v -640 -192 0
v -640 -176 0
v -624 -192 0
v -624 -176 0
v -608 -192 0
v -608 -176 0
v -592 -192 0
v -592 -176 0
v -576 -192 0
v -576 -176 0
v -560 -192 0
v -560 -176 0
v -544 -192 0
v -544 -176 0
v -528 -192 0
v -528 -176 0
v -512 -192 0
v -512 -176 0
v -496 -192 0
v -496 -176 0
v -480 -192 0
v -480 -176 0
v -464 -192 0
v -464 -176 0
v -448 -192 0
v -448 -176 0
v -432 -192 0
v -432 -176 0
v -416 -192 0
v -416 -176 0
v -400 -192 0
v -400 -176 0
v -384 -192 0
v -384 -176 0
v -368 -192 0
v -368 -176 0
v -352 -192 0
v -352 -176 0
v -336 -192 0
v -336 -176 0
v -320 -192 0
v -320 -176 0
v -304 -192 0
v -304 -176 0
v -288 -192 0
v -288 -176 0
v -272 -192 0
v -272 -176 0
v -256 -192 0
v -256 -176 0
v -240 -192 0
v -240 -176 0
v -224 -192 0
v -224 -176 0
v -208 -192 0
v -208 -176 0
v -192 -192 0
v -192 -176 0
v -176 -192 0
v -176 -176 0
v -160 -192 0
v -160 -176 0
v -144 -192 0
v -144 -176 0
v -128 -192 0
v -128 -176 0
v -112 -192 0
v -112 -176 0
v -96 -192 0
v -96 -176 0
v -80 -192 0
v -80 -176 0
v -64 -192 0
v -64 -176 0
v -48 -192 0
v -48 -176 0
v -32 -192 0
v -32 -176 0
v -16 -192 0
v -16 -176 0
v 0 -192 0
v 0 -176 0
v -1280 -160 0
v -1264 -160 0
v -1248 -160 0
v -1232 -160 0
v -1216 -160 0
v -1200 -160 0
v -1184 -160 0
v -1168 -160 0
v -1152 -160 0
v -1136 -160 0
v -1120 -160 0
v -1104 -160 0
v -1088 -160 0
v -1072 -160 0
v -1056 -160 0
v -1040 -160 0
v -1024 -160 0
v -1008 -160 0
v -992 -160 0
v -976 -160 0
v -960 -160 0
v -624 -160 0
v -608 -160 0
v -336 -160 0
v -320 -160 0
v -176 -160 0
v -160 -160 0
v -1280 -144 0
v -1264 -144 0
v -1248 -144 0
v -1232 -144 0
v -1216 -144 0
v -1200 -144 0
v -1184 -144 0
v -1168 -144 0
v -1152 -144 0
v -1136 -144 0
v -1120 -144 0
v -1104 -144 0
v -1088 -144 0
v -1072 -144 0
v -1056 -144 0
v -1040 -144 0
v -1024 -144 0
v -1008 -144 0
v -992 -144 0
v -976 -144 0
v -624 -144 0
v -608 -144 0
v -336 -144 0
v -320 -144 0
v -176 -144 0
v -160 -144 0
v -1280 -128 0
v -1264 -128 0
v -1248 -128 0
v -1232 -128 0
v -1216 -128 0
v -1200 -128 0
v -1184 -128 0
v -1168 -128 0
v -1152 -128 0
v -1136 -128 0
v -1120 -128 0
v -1104 -128 0
v -1088 -128 0
v -1072 -128 0
v -1056 -128 0
v -1040 -128 0
v -1024 -128 0
v -1008 -128 0
v -992 -128 0
v -336 -128 0
v -320 -128 0
v -336 -112 0
v -320 -112 0

# Texture Coorindates (Count = 28)
vt 0.1667887 0.5001221
vt 0.3332113 0.5001221
vt 0.3332113 0.7498779
vt 0.1667887 0.7498779
vt 0.8334554 0.5001221
vt 0.9998779 0.5001221
vt 0.9998779 0.7498779
vt 0.8334554 0.7498779
vt 0.1667887 0.7501221
vt 0.3332113 0.7501221
vt 0.3332113 0.9998779
vt 0.1667887 0.9998779
vt 0.6667888 0.2501221
vt 0.8332112 0.2501221
vt 0.8332112 0.4998779
vt 0.6667888 0.4998779
vt 0.0001220703 0.7501221
vt 0.1665446 0.7501221
vt 0.1665446 0.9998779
vt 0.0001220703 0.9998779
vt 0.5001221 0.5001221
vt 0.6665446 0.5001221
vt 0.6665446 0.7498779
vt 0.5001221 0.7498779
vt 0.5001221 0.7501221
vt 0.6665446 0.7501221
vt 0.6665446 0.9998779
vt 0.5001221 0.9998779

# Normal
vn 0 0 -1

# Groups (Count = 1)
g mesh_[00]_[00]
f  1/1/1  2/2/1  3/3/1  4/4/1 
f  5/1/1  1/2/1  4/3/1  6/4/1 
f  7/1/1  5/2/1  6/3/1  8/4/1 
f  9/1/1  7/2/1  8/3/1  10/4/1 
f  11/1/1  9/2/1  10/3/1  12/4/1 
f  13/1/1  11/2/1  12/3/1  14/4/1 
f  15/1/1  13/2/1  14/3/1  16/4/1 
f  17/1/1  15/2/1  16/3/1  18/4/1 
f  19/1/1  17/2/1  18/3/1  20/4/1 
f  21/1/1  19/2/1  20/3/1  22/4/1 
f  23/1/1  21/2/1  22/3/1  24/4/1 
f  25/1/1  23/2/1  24/3/1  26/4/1 
f  27/1/1  25/2/1  26/3/1  28/4/1 
f  29/1/1  27/2/1  28/3/1  30/4/1 
f  31/1/1  29/2/1  30/3/1  32/4/1 
f  33/1/1  31/2/1  32/3/1  34/4/1 
f  35/1/1  33/2/1  34/3/1  36/4/1 
f  37/1/1  35/2/1  36/3/1  38/4/1 
f  39/1/1  37/2/1  38/3/1  40/4/1 
f  41/5/1  39/6/1  40/7/1  42/8/1 
f  43/9/1  41/10/1  42/11/1  44/12/1 
f  45/9/1  43/10/1  44/11/1  46/12/1 
f  47/9/1  45/10/1  46/11/1  48/12/1 
f  49/9/1  47/10/1  48/11/1  50/12/1 
f  51/9/1  49/10/1  50/11/1  52/12/1 
f  53/9/1  51/10/1  52/11/1  54/12/1 
f  55/9/1  53/10/1  54/11/1  56/12/1 
f  57/9/1  55/10/1  56/11/1  58/12/1 
f  59/9/1  57/10/1  58/11/1  60/12/1 
f  61/9/1  59/10/1  60/11/1  62/12/1 
f  63/9/1  61/10/1  62/11/1  64/12/1 
f  65/9/1  63/10/1  64/11/1  66/12/1 
f  67/9/1  65/10/1  66/11/1  68/12/1 
f  69/9/1  67/10/1  68/11/1  70/12/1 
f  71/9/1  69/10/1  70/11/1  72/12/1 
f  73/9/1  71/10/1  72/11/1  74/12/1 
f  75/9/1  73/10/1  74/11/1  76/12/1 
f  77/9/1  75/10/1  76/11/1  78/12/1 
f  79/9/1  77/10/1  78/11/1  80/12/1 
f  81/9/1  79/10/1  80/11/1  82/12/1 
f  83/9/1  81/10/1  82/11/1  84/12/1 
f  85/13/1  83/14/1  84/15/1  86/16/1 
f  87/9/1  85/10/1  86/11/1  88/12/1 
f  89/9/1  87/10/1  88/11/1  90/12/1 
f  91/9/1  89/10/1  90/11/1  92/12/1 
f  93/9/1  91/10/1  92/11/1  94/12/1 
f  95/9/1  93/10/1  94/11/1  96/12/1 
f  97/9/1  95/10/1  96/11/1  98/12/1 
f  99/9/1  97/10/1  98/11/1  100/12/1 
f  101/9/1  99/10/1  100/11/1  102/12/1 
f  103/9/1  101/10/1  102/11/1  104/12/1 
f  105/9/1  103/10/1  104/11/1  106/12/1 
f  107/9/1  105/10/1  106/11/1  108/12/1 
f  109/9/1  107/10/1  108/11/1  110/12/1 
f  111/9/1  109/10/1  110/11/1  112/12/1 
f  113/9/1  111/10/1  112/11/1  114/12/1 
f  115/9/1  113/10/1  114/11/1  116/12/1 
f  117/9/1  115/10/1  116/11/1  118/12/1 
f  119/9/1  117/10/1  118/11/1  120/12/1 
f  121/13/1  119/14/1  120/15/1  122/16/1 
f  123/9/1  121/10/1  122/11/1  124/12/1 
f  125/9/1  123/10/1  124/11/1  126/12/1 
f  127/9/1  125/10/1  126/11/1  128/12/1 
f  129/9/1  127/10/1  128/11/1  130/12/1 
f  131/9/1  129/10/1  130/11/1  132/12/1 
f  133/9/1  131/10/1  132/11/1  134/12/1 
f  135/9/1  133/10/1  134/11/1  136/12/1 
f  137/9/1  135/10/1  136/11/1  138/12/1 
f  139/9/1  137/10/1  138/11/1  140/12/1 
f  141/13/1  139/14/1  140/15/1  142/16/1 
f  143/9/1  141/10/1  142/11/1  144/12/1 
f  145/9/1  143/10/1  144/11/1  146/12/1 
f  147/9/1  145/10/1  146/11/1  148/12/1 
f  149/9/1  147/10/1  148/11/1  150/12/1 
f  151/9/1  149/10/1  150/11/1  152/12/1 
f  153/9/1  151/10/1  152/11/1  154/12/1 
f  155/9/1  153/10/1  154/11/1  156/12/1 
f  157/9/1  155/10/1  156/11/1  158/12/1 
f  159/9/1  157/10/1  158/11/1  160/12/1 
f  161/9/1  159/10/1  160/11/1  162/12/1 
f  4/1/1  3/2/1  163/3/1  164/4/1 
f  6/1/1  4/2/1  164/3/1  165/4/1 
f  8/1/1  6/2/1  165/3/1  166/4/1 
f  10/1/1  8/2/1  166/3/1  167/4/1 
f  12/1/1  10/2/1  167/3/1  168/4/1 
f  14/1/1  12/2/1  168/3/1  169/4/1 
f  16/1/1  14/2/1  169/3/1  170/4/1 
f  18/1/1  16/2/1  170/3/1  171/4/1 
f  20/1/1  18/2/1  171/3/1  172/4/1 
f  22/1/1  20/2/1  172/3/1  173/4/1 
f  24/1/1  22/2/1  173/3/1  174/4/1 
f  26/1/1  24/2/1  174/3/1  175/4/1 
f  28/1/1  26/2/1  175/3/1  176/4/1 
f  30/1/1  28/2/1  176/3/1  177/4/1 
f  32/1/1  30/2/1  177/3/1  178/4/1 
f  34/1/1  32/2/1  178/3/1  179/4/1 
f  36/1/1  34/2/1  179/3/1  180/4/1 
f  38/1/1  36/2/1  180/3/1  181/4/1 
f  40/5/1  38/6/1  181/7/1  182/8/1 
f  42/17/1  40/18/1  182/19/1  183/20/1 
f  86/21/1  84/22/1  184/23/1  185/24/1 
f  122/21/1  120/22/1  186/23/1  187/24/1 
f  142/21/1  140/22/1  188/23/1  189/24/1 
f  164/1/1  163/2/1  190/3/1  191/4/1 
f  165/1/1  164/2/1  191/3/1  192/4/1 
f  166/1/1  165/2/1  192/3/1  193/4/1 
f  167/1/1  166/2/1  193/3/1  194/4/1 
f  168/1/1  167/2/1  194/3/1  195/4/1 
f  169/1/1  168/2/1  195/3/1  196/4/1 
f  170/1/1  169/2/1  196/3/1  197/4/1 
f  171/1/1  170/2/1  197/3/1  198/4/1 
f  172/1/1  171/2/1  198/3/1  199/4/1 
f  173/1/1  172/2/1  199/3/1  200/4/1 
f  174/1/1  173/2/1  200/3/1  201/4/1 
f  175/1/1  174/2/1  201/3/1  202/4/1 
f  176/1/1  175/2/1  202/3/1  203/4/1 
f  177/1/1  176/2/1  203/3/1  204/4/1 
f  178/1/1  177/2/1  204/3/1  205/4/1 
f  179/1/1  178/2/1  205/3/1  206/4/1 
f  180/1/1  179/2/1  206/3/1  207/4/1 
f  181/5/1  180/6/1  207/7/1  208/8/1 
f  182/17/1  181/18/1  208/19/1  209/20/1 
f  185/25/1  184/26/1  210/27/1  211/28/1 
f  187/21/1  186/22/1  212/23/1  213/24/1 
f  189/25/1  188/26/1  214/27/1  215/28/1 
f  191/9/1  190/10/1  216/11/1  217/12/1 
f  192/9/1  191/10/1  217/11/1  218/12/1 
f  193/9/1  192/10/1  218/11/1  219/12/1 
f  194/9/1  193/10/1  219/11/1  220/12/1 
f  195/9/1  194/10/1  220/11/1  221/12/1 
f  196/9/1  195/10/1  221/11/1  222/12/1 
f  197/9/1  196/10/1  222/11/1  223/12/1 
f  198/9/1  197/10/1  223/11/1  224/12/1 
f  199/9/1  198/10/1  224/11/1  225/12/1 
f  200/9/1  199/10/1  225/11/1  226/12/1 
f  201/9/1  200/10/1  226/11/1  227/12/1 
f  202/9/1  201/10/1  227/11/1  228/12/1 
f  203/9/1  202/10/1  228/11/1  229/12/1 
f  204/9/1  203/10/1  229/11/1  230/12/1 
f  205/9/1  204/10/1  230/11/1  231/12/1 
f  206/9/1  205/10/1  231/11/1  232/12/1 
f  207/9/1  206/10/1  232/11/1  233/12/1 
f  208/17/1  207/18/1  233/19/1  234/20/1 
f  213/21/1  212/22/1  235/23/1  236/24/1 
f  236/25/1  235/26/1  237/27/1  238/28/1 
